<?xml version="1.0" encoding="utf-8"?>
<!-- Svg Vector Icons : http://www.onlinewebfonts.com/icon -->
<!DOCTYPE svg PUBLIC "-//W3C//DTD SVG 1.1//EN" "http://www.w3.org/Graphics/SVG/1.1/DTD/svg11.dtd">
<svg version="1.1" xmlns="http://www.w3.org/2000/svg" xmlns:xlink="http://www.w3.org/1999/xlink" x="0px" y="0px" viewBox="0 0 256 256" enable-background="new 0 0 256 256" xml:space="preserve">
<metadata> Svg Vector Icons : http://www.onlinewebfonts.com/icon </metadata>
<g><g><g><path fill="#000000" d="M106.1,52.7C23,112.9,10,122.4,10,123c0,0.3,1.8,1.9,4.1,3.5c16.5,11.9,48.6,38.1,78.2,63.9c7.8,6.8,14.7,12.8,15.3,13.2l1.1,0.9v-23.3c0-21.8,0-23.3,0.8-23.6c1.6-0.5,11.6-1.7,18.3-2.1c39.4-2.7,74.9,6.9,98.2,26.4c6.9,5.8,14.4,14.4,19.4,22.3c0.5,0.8,0.6,0.7,0.6-0.8c0.1-5.6-1.8-17.3-4-25.1c-3.8-13.2-11.4-27.7-20.7-39.2c-5.8-7.2-15.9-16.6-24.2-22.6c-21.3-15.3-50.8-25.1-78.8-26.3c-3.2-0.1-6.6-0.3-7.7-0.5l-2-0.2V70.4c0-10.5-0.2-19.1-0.4-19.1C108.1,51.3,107.1,51.9,106.1,52.7z M99.9,79.5c0,13,0.2,14.2,3.1,16.6c2.1,1.8,3.7,2.1,11.8,2.4c36.2,1.4,68,14,90.6,36c11,10.6,19.2,22.4,24.4,34.8c3,7,3,6.9-1,3.8c-14-11.1-32.1-19.1-52.4-23.1c-12.7-2.5-18.4-3-36.4-3c-14.3,0-17.3,0.2-24.1,1.1c-9.2,1.2-11.8,1.9-13.4,3.6c-2.4,2.6-2.4,2.6-2.7,18.7l-0.2,15l-9.7-8.3c-22.1-18.9-47.6-39.9-60.8-49.9c-4.3-3.3-5.3-4.2-4.8-4.7c0.3-0.3,16.7-12.2,36.3-26.5c19.6-14.3,36.4-26.4,37.1-27c0.8-0.6,1.5-1.1,1.8-1.1C99.8,67.9,99.9,73.2,99.9,79.5z"/></g></g></g>
</svg>