<svg width="395" height="395" viewBox="0 0 395 395" fill="none" xmlns="http://www.w3.org/2000/svg">
<path d="M355.596 369.39C353.405 369.42 351.247 368.866 349.342 367.783C347.437 366.701 345.856 365.13 344.761 363.233C328.362 335.296 304.988 312.098 276.928 295.91C248.869 279.722 217.086 271.099 184.693 270.886V344.764C184.68 347.195 183.949 349.567 182.59 351.583C181.232 353.599 179.307 355.168 177.059 356.092C174.816 357.034 172.345 357.292 169.956 356.832C167.568 356.372 165.369 355.214 163.637 353.506L15.8824 205.751C14.7283 204.606 13.8123 203.244 13.1872 201.744C12.5621 200.243 12.2402 198.634 12.2402 197.009C12.2402 195.383 12.5621 193.774 13.1872 192.273C13.8123 190.773 14.7283 189.411 15.8824 188.266L163.637 40.5113C165.369 38.8028 167.568 37.6454 169.956 37.1852C172.345 36.7251 174.816 36.9827 177.059 37.9256C179.307 38.8493 181.232 40.418 182.59 42.4338C183.949 44.4497 184.68 46.8226 184.693 49.2535V124.485C235.634 131.028 282.458 155.87 316.438 194.382C350.419 232.893 369.237 282.446 369.386 333.805C369.357 342.039 368.823 350.263 367.786 358.431C367.478 360.993 366.374 363.393 364.628 365.293C362.883 367.193 360.585 368.497 358.059 369.02L355.596 369.39ZM178.536 246.26C209.939 245.809 241.066 252.182 269.765 264.937C298.464 277.692 324.052 296.526 344.761 320.138C341.056 275.471 321.558 233.586 289.764 201.995C257.97 170.404 215.961 151.175 171.271 147.757C168.202 147.479 165.347 146.061 163.273 143.781C161.198 141.501 160.054 138.526 160.067 135.444V78.9276L41.9858 197.009L160.067 315.09V258.573C160.067 255.308 161.364 252.176 163.673 249.867C165.982 247.558 169.114 246.26 172.38 246.26H179.029H178.536Z" fill="black"/>
</svg>
